<svg height="800" viewBox="0 0 684.92478 800" width="684.92474" xmlns="http://www.w3.org/2000/svg"><g transform="matrix(1.3333333 0 0 -1.3333333 .000667 1268.1331)"><path d="m256.84645 951.09901s-146.59697.76713-256.75514918-44.79088c-.03091159-.0126-.06057381-.0253-.0914854-.0379v-70.00202c.03091159-.01199.06120466-.02313.0914854-.03511v-286.98507h.6274604c-.62769449-1.0043-.86465954-2.25213-.6274604-3.78509 2.88613308-18.63148 7.45094848-48.27433 45.93398418-70.92244l210.821165-123.44058 210.82115 123.44058c38.48303 22.64811 43.04786 52.29096 45.93399 70.92244.23718 1.53296.00024 2.78079-.62747 3.78509h.62747v286.98507c.0309.012.0606.0231.0915.0351v70.00203c-.0309.0126-.0606.0253-.0915.0379-110.15819 45.55801-256.75514 44.79088-256.75514 44.79088z" fill="#0d2360"/><path d="m490.8913 891.79492c-105.52459 39.53718-234.04488 36.57471-234.04488 36.57471v10.74336s133.73047 2.45526 244.76931-40.37432c-.017-7.06551 0-352.01361 0-352.01361s.33625-38.28873-34.06583-58.66893c-1.0573-.62328-210.70348-123.64636-210.70348-123.64636v11.98613s207.49057 121.62827 208.49866 122.2219c26.94734 19.40491 25.54622 48.32743 25.54622 48.32743s-.0158 338.11853 0 344.84969" fill="#977c4a" fill-rule="evenodd"/><path d="m256.84642 951.0988s-146.59727.76774-256.75544693-44.79026c-.03091159-.01262-.06056148-.02524-.09147307-.03785v-70.00277c.03091159-.012.06119233-.0227.09147307-.0347v-286.98508h.62769451c-.62769451-1.00431-.86489364-2.25213-.62769451-3.78509 2.88613303-18.63149 7.45158553-48.27444 45.93462093-70.92254l210.820826-123.4407z" fill="#142b72"/><g transform="matrix(.63084876 0 0 .63084876 -.000185 351.09968)"><path d="m407.1445 294.0985c5.947-.016 14 6 14 6l294 169s9.007 8.199 9-1c-.008-10.513 0-132.594 0-143-.065-8.91-2.373-23.756-20-35-18.96-12.095-291-170-291-170s-2.879-1.993-6-2z" fill="#d6d8d9"/><path d="m407.1445 294.0985c-5.947-.016-14 6-14 6l-294 169s-9.007 8.199-9-1c.008-10.513 0-132.594 0-143 .065-8.91 2.373-23.756 20-35 18.96-12.095 291-170 291-170s2.879-1.993 6-2z" fill="#fff"/></g><path d="m22.801528 891.79492c105.524592 39.53718 234.044892 36.57471 234.044892 36.57471v10.74336s-133.73048 2.45526-244.769321-40.37432c.01703-7.06551 0-352.01361 0-352.01361s-.336873-38.28873 34.065833-58.66893c1.057303-.62328 210.703488-123.64636 210.703488-123.64636v11.98613s-207.490575 121.62827-208.498671 122.2219c-26.947336 19.40491-25.546221 48.32743-25.546221 48.32743s.0164 338.11853 0 344.84969" fill="#b49357" fill-rule="evenodd"/><g transform="matrix(.63084876 0 0 .63084876 -.000185 351.09968)"><g fill="#b49357"><path d="m205.8818 493.6542c4.705 4.705 7.058 10.978 7.058 18.819v37.639h-26.661v-17.565h7.841v-21.329c0-2.092-.654-3.791-1.96-5.097-1.309-1.308-3.007-1.96-5.097-1.96-2.093 0-3.791.652-5.097 1.96-1.309 1.306-1.96 3.005-1.96 5.097v74.65c0 2.09.651 3.788 1.96 5.097 1.306 1.306 3.004 1.96 5.097 1.96 2.09 0 3.788-.654 5.097-1.96 1.306-1.309 1.96-3.007 1.96-5.097v-15.369h18.82v14.114c0 7.736-2.38 13.982-7.136 18.741-4.759 4.757-11.005 7.136-18.741 7.136-7.842 0-14.115-2.353-18.819-7.057-4.705-4.705-7.057-10.978-7.057-18.82v-72.14c0-7.738 2.376-13.985 7.135-18.741 4.756-4.759 11.002-7.136 18.741-7.136 7.841 0 14.114 2.353 18.819 7.058"/><path d="m241.951 608.138h-18.819v-119.188h18.819z"/><path d="m272.5308 590.5731h7.057c2.09 0 3.789-.654 5.097-1.96 1.306-1.309 1.96-3.007 1.96-5.097v-26.033c0-2.093-.654-3.791-1.96-5.098-1.308-1.308-3.007-1.96-5.097-1.96h-7.057zm0-101.624v43.912h2.979l13.488-43.912h19.603l-14.585 47.675c7.631 4.494 11.449 11.866 11.449 22.113v23.524c0 7.736-2.38 13.982-7.136 18.741-4.759 4.756-11.005 7.135-18.741 7.135h-25.876v-119.188z"/><path d="m333.6919 511.2186v74.65c0 2.09.652 3.788 1.96 5.097 1.306 1.306 3.004 1.96 5.097 1.96 2.09 0 3.788-.654 5.097-1.96 1.306-1.309 1.96-3.007 1.96-5.097v-74.65c0-2.093-.654-3.791-1.96-5.097-1.309-1.308-3.007-1.96-5.097-1.96-2.093 0-3.791.652-5.097 1.96-1.308 1.306-1.96 3.004-1.96 5.097m25.876-17.564c4.705 4.704 7.058 10.977 7.058 18.818v72.141c0 7.736-2.38 13.982-7.136 18.741-4.759 4.756-11.005 7.135-18.741 7.135-7.841 0-14.114-2.352-18.819-7.057s-7.057-10.978-7.057-18.819v-72.141c0-7.738 2.377-13.984 7.135-18.74 4.757-4.759 11.003-7.136 18.741-7.136 7.841 0 14.114 2.352 18.819 7.058"/><path d="m395.6372 488.9491v57.869l20.387-57.869h15.683v119.188h-18.819v-58.339l-20.544 58.339h-15.526v-119.188z"/><path d="m462.2861 590.5731h7.058c2.089 0 3.788-.654 5.096-1.96 1.306-1.309 1.96-3.007 1.96-5.097v-69.945c0-2.093-.654-3.791-1.96-5.097-1.308-1.309-3.007-1.96-5.096-1.96h-7.058zm7.058-101.624c7.84 0 14.114 2.353 18.819 7.057 4.704 4.705 7.057 10.978 7.057 18.819v67.436c0 7.736-2.379 13.982-7.136 18.741-4.758 4.756-11.004 7.135-18.74 7.135h-25.877v-119.188z"/><path d="m524.231 608.138h-18.819v-119.188h18.819z"/><path d="m554.8105 488.9491v57.869l20.388-57.869h15.682v119.188h-18.819v-58.339l-20.544 58.339h-15.526v-119.188z"/><path d="m644.9834 493.6542c4.705 4.705 7.058 10.978 7.058 18.819v9.41c0 5.332-1.125 10.272-3.372 14.82-2.249 4.548-4.994 8.39-8.234 11.527-3.241 3.136-6.483 6.14-9.723 9.017-3.242 2.874-5.986 5.96-8.233 9.253-2.25 3.293-3.372 6.717-3.372 10.272v9.096c0 2.09.651 3.788 1.96 5.097 1.307 1.306 3.005 1.96 5.098 1.96 2.089 0 3.788-.654 5.096-1.96 1.306-1.309 1.96-3.007 1.96-5.097v-15.369h18.82v14.114c0 7.736-2.379 13.982-7.136 18.741-4.759 4.757-11.005 7.136-18.74 7.136-7.842 0-14.116-2.353-18.82-7.057-4.705-4.705-7.057-10.978-7.057-18.82v-9.409c0-5.332 1.122-10.272 3.372-14.821 2.247-4.547 4.991-8.39 8.233-11.526 3.239-3.137 6.482-6.143 9.723-9.017 3.24-2.877 5.984-5.96 8.233-9.253 2.247-3.294 3.372-6.72 3.372-10.272v-9.097c0-2.092-.654-3.791-1.96-5.097-1.308-1.308-3.007-1.96-5.096-1.96-2.093 0-3.791.652-5.098 1.96-1.309 1.306-1.96 3.005-1.96 5.097v15.37h-18.819v-14.115c0-7.738 2.377-13.985 7.135-18.741 4.756-4.759 11.002-7.136 18.742-7.136 7.84 0 14.114 2.353 18.818 7.058"/></g><g fill="#fff" fill-rule="evenodd"><path d="m464.1445 441.0985h20v-61h-11v51h-9z"/><path d="m325.1445 441.0985h20v-61h-11v51h-9z"/><path d="m380.0195 388.0985c-5.247 0-9.5 4.253-9.5 9.5s4.253 9.5 9.5 9.5 9.5-4.253 9.5-9.5-4.253-9.5-9.5-9.5m0 46c4.418 0 8-3.582 8-8s-3.582-8-8-8-8 3.582-8 8 3.582 8 8 8m14.216-20.575c2.968 3.351 4.784 7.746 4.784 12.575 0 10.493-8.507 19-19 19s-19-8.507-19-19c0-4.829 1.816-9.224 4.784-12.575-4.161-3.838-6.784-9.319-6.784-15.425 0-11.598 9.402-21 21-21s21 9.402 21 21c0 6.106-2.623 11.587-6.784 15.425"/><path d="m434.0195 388.0985c-5.247 0-9.5 4.253-9.5 9.5s4.253 9.5 9.5 9.5 9.5-4.253 9.5-9.5-4.253-9.5-9.5-9.5m0 46c4.418 0 8-3.582 8-8s-3.582-8-8-8-8 3.582-8 8 3.582 8 8 8m14.216-20.575c2.968 3.351 4.784 7.746 4.784 12.575 0 10.493-8.507 19-19 19s-19-8.507-19-19c0-4.829 1.816-9.224 4.784-12.575-4.161-3.838-6.784-9.319-6.784-15.425 0-11.598 9.402-21 21-21s21 9.402 21 21c0 6.106-2.622 11.587-6.784 15.425"/></g><g fill="#fff"><path d="m664.415 642.3905 22.491 65.66 22.491-65.66h18.743l-31.752 93.1 28.444 83.3h-18.742l-19.184-56.105-19.183 56.105h-18.743l28.445-83.3-31.752-93.1z"/><path d="m635.8789 674.2406v144.55h-17.641v-146.51c0-4.739-1.322-8.575-3.968-11.515s-6.102-4.41-10.364-4.41c-4.265 0-7.717 1.47-10.363 4.41s-3.97 6.776-3.97 11.515v146.51h-17.639v-144.55c0-10.619 2.938-19.194 8.82-25.725 5.877-6.534 13.595-9.8 23.152-9.8 9.554 0 17.272 3.266 23.153 9.8 5.878 6.531 8.82 15.106 8.82 25.725"/><path d="m522.8037 801.1508h2.205l11.466-99.225h-25.137zm-18.302-158.76 4.851 41.895h29.106l4.851-41.895h17.64l-22.27 176.4h-29.547l-22.27-176.4z"/><path d="m477.5322 642.3905v17.64h-41.896v61.74h33.076v17.64h-33.076v61.74h41.896v17.64h-59.535v-176.4z"/><path d="m353.6763 801.1508h14.333c4.261 0 7.717-1.47 10.363-4.41s3.969-6.779 3.969-11.515v-109.27c0-4.739-1.323-8.575-3.969-11.515s-6.102-4.41-10.363-4.41h-14.333zm14.333-158.76c9.553 0 17.271 3.265 23.152 9.8 5.878 6.531 8.82 15.106 8.82 25.725v105.35c0 10.615-2.942 19.19-8.82 25.725-5.881 6.531-13.599 9.8-23.152 9.8h-31.973v-176.4zm-31.752 181.3h-.221v-.245z"/><path d="m270.1245 801.1508h14.333c4.261 0 7.717-1.47 10.363-4.41s3.969-6.779 3.969-11.515v-40.67c0-4.739-1.323-8.575-3.969-11.515s-6.102-4.41-10.363-4.41h-14.333zm0-158.76v68.6h11.907l18.742-68.6h18.522l-19.845 72.03c11.318 5.715 16.979 16.415 16.979 32.095v36.75c0 10.615-2.943 19.19-8.82 25.725-5.881 6.531-13.599 9.8-23.152 9.8h-31.973v-176.4z"/><path d="m187.9507 671.6273v116.62c0 4.735 1.323 8.575 3.969 11.515s6.098 4.41 10.364 4.41c4.261 0 7.717-1.47 10.363-4.41s3.969-6.78 3.969-11.515v-116.62c0-4.739-1.323-8.575-3.969-11.515s-6.102-4.41-10.363-4.41c-4.266 0-7.718 1.47-10.364 4.41s-3.969 6.776-3.969 11.515m46.305 1.96v112.7c0 10.615-2.942 19.191-8.82 25.725-5.881 6.531-13.599 9.8-23.152 9.8-9.558 0-17.275-3.269-23.153-9.8-5.881-6.534-8.82-15.11-8.82-25.725v-112.7c0-10.619 2.939-19.194 8.82-25.725 5.878-6.534 13.595-9.8 23.153-9.8 9.553 0 17.271 3.266 23.152 9.8 5.878 6.531 8.82 15.106 8.82 25.725"/><path d="m107.3857 721.1176h14.333c4.261 0 7.717-1.47 10.363-4.41s3.969-6.78 3.969-11.515v-29.89c0-4.739-1.323-8.575-3.969-11.515s-6.102-4.41-10.363-4.41h-14.333zm0 79.38h14.333c4.261 0 7.717-1.47 10.363-4.41s3.969-6.78 3.969-11.515v-29.89c0-4.739-1.323-8.575-3.969-11.515s-6.102-4.41-10.363-4.41h-14.333zm14.333-158.76c9.553 0 17.271 3.265 23.152 9.8 5.877 6.531 8.82 15.106 8.82 25.725v23.275c0 13.23-4.265 23.03-12.789 29.4 8.524 6.37 12.789 16.17 12.789 29.4v23.275c0 10.615-2.943 19.19-8.82 25.725-5.881 6.53-13.599 9.8-23.152 9.8h-31.973v-176.4z"/></g></g></g></svg>